:SAMPLES-PER-SECOND 30
:FULLY-SPECIFIED
:DEGREES
86
root  18.9028 38.9577 27.654 -0.731186 -70.6869 -5.90892
RightUpLeg  -4.27312 -9.17463 2.62647
RightLeg  19.2332 -11.6412 -0.990189
RightFoot  -8.20689 0.079942 -4.94924
RightToes  -1.33073e-015 0 -3.6325e-017
Spine  6.85169 -3.17182 10.61
Spine1  7.58873 -2.42712 2.93912
HEad  -22.6337 -23.1202 3.68187
LeftShoulder1  -0.187017 4.0005 -31.5404
LeftArm  -7.36905 9.87696 -43.1325
LeftForeArm  32.8795 -5.10861 -6.92695
LeftHand  0.00758625 2.97034 -1.18696
RightShoulder  -0.535835 -5.209 24.6417
RightArm  11.9926 -0.478537 49.6245
RightForeArm  11.6538 16.4609 4.61987
RightHand  -0.228086 2.40352 -3.62345
LeftUpLeg  -10.4987 14.4976 6.95993
LeftLeg  57.083 -2.81777 -4.20989
LeftFoot  -3.62715 0.552923 -7.85277
LeftToes  -1.03319e-009 7.52634e-011 -3.26162e-012
87
root  18.4797 39.0698 28.2326 -2.65114 -73.0047 -3.60428
RightUpLeg  -2.9605 -9.29573 1.04207
RightLeg  17.7739 -8.78704 -0.24216
RightFoot  -8.86439 0.0423184 -4.71937
RightToes  -1.33073e-015 0 -3.6325e-017
Spine  6.6166 -2.60639 10.1622
Spine1  7.84781 -1.75785 1.96449
HEad  -22.0691 -21.9555 3.1335
LeftShoulder1  -0.168076 3.95749 -30.9239
LeftArm  -7.96177 10.8906 -43.0154
LeftForeArm  32.34 -5.78132 -6.6188
LeftHand  0.00873284 2.71226 -0.969312
RightShoulder  -0.545555 -5.23596 24.7126
RightArm  14.0804 0.48378 50.5336
RightForeArm  7.9831 19.6371 4.47806
RightHand  -0.333609 3.28347 -4.7177
LeftUpLeg  -11.4981 13.4641 7.36656
LeftLeg  52.3606 -1.80092 -2.04463
LeftFoot  -5.14373 0.356228 -6.02317
LeftToes  -1.03319e-009 7.52634e-011 -3.26162e-012
88
root  18.0327 39.1917 28.8088 -4.08704 -75.4119 -1.77415
RightUpLeg  -2.06772 -9.22239 0.00187094
RightLeg  16.8632 -6.62533 -0.0759237
RightFoot  -9.34211 0.0103624 -4.20876
RightToes  -1.33073e-015 0 -3.6325e-017
Spine  6.52801 -2.15977 9.92608
Spine1  7.66554 -1.24783 1.14907
HEad  -20.2417 -19.5686 1.84519
LeftShoulder1  -0.145214 3.89726 -30.7919
LeftArm  -8.06719 12.0656 -42.2975
LeftForeArm  31.144 -6.82448 -6.60661
LeftHand  -0.00745166 3.83351 -0.866191
RightShoulder  -0.563412 -5.28543 24.8549
RightArm  14.9475 1.04281 51.0102
RightForeArm  7.88888 23.0088 4.54464
RightHand  -0.277074 2.97326 -4.08639
LeftUpLeg  -11.22 11.4335 8.03178
LeftLeg  44.5218 -1.44885 -1.14706
LeftFoot  -6.18338 0.275456 -5.31298
LeftToes  -1.03319e-009 7.52634e-011 -3.26162e-012
89
root  17.5915 39.3045 29.3913 -5.8912 -77.8855 0.500336
RightUpLeg  -1.3413 -9.23378 -1.13966
RightLeg  15.9272 -4.00899 0.237878
RightFoot  -9.65315 -0.0113969 -3.66944
RightToes  -1.33073e-015 0 -3.6325e-017
Spine  6.15532 -1.719 9.25659
Spine1  7.80784 -0.907954 0.790945
HEad  -17.7112 -16.347 0.595137
LeftShoulder1  -0.104248 3.78564 -30.8711
LeftArm  -8.21761 12.9329 -41.6732
LeftForeArm  31.0727 -7.74272 -6.46027
LeftHand  0.0311476 2.42443 -1.84156
RightShoulder  -0.524144 -5.17958 24.4783
RightArm  14.2164 1.40724 51.7462
RightForeArm  9.65441 26.0322 5.07078
RightHand  -0.250236 3.68559 -3.45008
LeftUpLeg  -9.82074 8.96962 8.62891
LeftLeg  34.2341 -1.25169 -0.553718
LeftFoot  -6.63073 0.265941 -5.493
LeftToes  -1.03319e-009 7.52634e-011 -3.26162e-012
90
root  17.1087 39.38 30.007 -7.0564 -80.1498 1.7946
RightUpLeg  -0.206732 -9.17032 -2.06554
RightLeg  14.931 -1.74059 0.413355
RightFoot  -10.0551 -0.0320757 -3.15094
RightToes  -1.33073e-015 0 -3.6325e-017
Spine  5.60231 -1.71256 9.17056
Spine1  8.51082 -0.817938 -0.291162
HEad  -15.676 -13.3384 0.300383
LeftShoulder1  -0.174486 3.97665 -30.7832
LeftArm  -7.24073 13.3716 -41.2121
LeftForeArm  29.66 -8.58831 -6.87584
LeftHand  0.00223312 2.92907 -0.813905
RightShoulder  -0.508039 -5.12836 24.4569
RightArm  14.8517 1.98236 52.1825
RightForeArm  9.72098 28.502 5.64397
RightHand  -0.346446 4.25166 -4.43478
LeftUpLeg  -7.45233 4.30995 9.17298
LeftLeg  23.4393 -1.94334 -0.623951
LeftFoot  -7.25359 0.230989 -5.28042
LeftToes  -1.03319e-009 7.52634e-011 -3.26162e-012
91
root  16.6041 39.3917 30.6364 -7.71805 -82.3649 2.12581
RightUpLeg  1.00933 -8.91508 -2.74689
RightLeg  14.6662 0.352671 0.179695
RightFoot  -10.8231 -0.0645084 -2.03729
RightToes  -1.33073e-015 0 -3.6325e-017
Spine  5.23238 -1.57594 8.797
Spine1  9.30675 -0.692464 -0.742116
HEad  -15.556 -13.4463 1.14024
LeftShoulder1  -0.130872 3.86003 -30.5271
LeftArm  -8.1324 13.1693 -41.7219
LeftForeArm  29.748 -7.82776 -6.54747
LeftHand  -0.0203178 3.79419 -0.0627994
RightShoulder  -0.50487 -5.11745 24.4698
RightArm  15.106 2.08566 51.9069
RightForeArm  9.79565 30.574 6.14009
RightHand  -0.429936 5.06942 -5.06815
LeftUpLeg  -4.74057 -0.426855 9.37664
LeftLeg  14.6874 -4.18459 -0.675027
LeftFoot  -7.31188 0.255998 -5.79628
LeftToes  -1.03319e-009 7.52634e-011 -3.26162e-012
92
root  16.1353 39.3387 31.2391 -7.30962 -84.1211 1.25516
RightUpLeg  1.794 -7.94652 -3.41795
RightLeg  15.4475 1.47053 0.0505593
RightFoot  -11.8878 -0.0823115 -0.847164
RightToes  -1.33073e-015 0 -3.6325e-017
Spine  5.16931 -1.4878 6.98875
Spine1  9.97591 -1.08154 0.321124
HEad  -14.6676 -13.0407 1.18207
LeftShoulder1  -0.0458012 3.62756 -30.3475
LeftArm  -8.8837 12.7673 -42.6221
LeftForeArm  30.3155 -6.79406 -6.16473
LeftHand  -0.00716255 3.6529 -0.967965
RightShoulder  -0.494846 -5.10026 24.1643
RightArm  15.7098 2.31936 51.1246
RightForeArm  10.6094 32.1072 6.47866
RightHand  -0.396884 4.10314 -5.14348
LeftUpLeg  -3.36199 -0.74983 8.95219
LeftLeg  11.9408 -7.582 -0.659792
LeftFoot  -5.58643 0.398622 -7.24844
LeftToes  -1.03319e-009 7.52634e-011 -3.26162e-012
93
root  15.7435 39.1232 31.7984 -21.2322 -86.3998 14.622
RightUpLeg  0.679364 -4.20761 -4.25252
RightLeg  19.682 0.707243 -0.269565
RightFoot  -13.8793 -0.0871276 0.368634
RightToes  -1.33073e-015 0 -3.6325e-017
Spine  6.59547 -1.24415 4.0871
Spine1  9.36369 -1.36806 1.68585
HEad  -13.3646 -11.0504 0.80865
LeftShoulder1  -0.185961 4.00401 -31.0959
LeftArm  -8.00173 11.2754 -42.2631
LeftForeArm  29.8402 -5.68759 -6.53419
LeftHand  -0.00633705 4.10873 -1.1985
RightShoulder  -0.451798 -4.96496 24.0444
RightArm  15.6595 2.32917 50.591
RightForeArm  10.5096 32.6009 6.61152
RightHand  -0.463814 3.50962 -6.30325
LeftUpLeg  -2.97951 0.14008 8.23012
LeftLeg  15.7022 -5.66758 -1.35784
LeftFoot  -8.73972 0.196298 -6.39454
LeftToes  -1.03319e-009 7.52634e-011 -3.26162e-012
94
root  15.3825 38.886 32.2319 -82.7366 -87.0496 75.4283
RightUpLeg  -1.50398 -0.551808 -6.81158
RightLeg  25.6425 0.17297 -0.0984433
RightFoot  -15.1405 -0.0655223 1.14845
RightToes  -1.33073e-015 0 -3.6325e-017
Spine  7.64039 -0.594921 0.159247
Spine1  9.84635 -1.01216 1.02917
HEad  -12.7206 -8.62131 1.27666
LeftShoulder1  -0.105834 3.79347 -30.3312
LeftArm  -8.08002 9.27108 -43.05
LeftForeArm  29.4735 -4.11605 -6.45098
LeftHand  -0.0129976 4.65802 0.124402
RightShoulder  -0.45112 -4.95782 24.1485
RightArm  13.9179 2.22332 51.1107
RightForeArm  11.8158 31.7268 6.31459
RightHand  -0.416351 4.59716 -5.12088
LeftUpLeg  -1.56931 3.24813 5.97737
LeftLeg  17.3328 -5.93216 -1.53784
LeftFoot  -10.3653 0.114251 -6.19791
LeftToes  -1.03319e-009 7.52634e-011 -3.26162e-012
95
root  15.0045 38.6341 32.667 -135.189 -84.4774 126.932
RightUpLeg  -4.92018 1.49246 -8.83673
RightLeg  33.479 0.00225432 -0.249592
RightFoot  -14.3884 -0.0319432 2.26878
RightToes  -1.33073e-015 0 -3.6325e-017
Spine  9.03916 -0.0385831 -1.7809
Spine1  9.95173 -0.264241 -0.742399
HEad  -12.1488 -7.47096 2.12905
LeftShoulder1  -0.017197 3.55178 -30.0818
LeftArm  -8.00816 7.07429 -42.4217
LeftForeArm  29.3517 -3.19463 -6.4155
LeftHand  -0.0211958 4.93013 -0.648513
RightShoulder  -0.469852 -4.98613 24.8406
RightArm  12.1274 1.95303 52.0647
RightForeArm  12.1809 29.7201 5.79743
RightHand  -0.390932 5.03695 -4.64524
LeftUpLeg  -0.0926442 5.50839 4.15827
LeftLeg  19.4642 -4.39644 -1.3428
LeftFoot  -12.6429 0.00879571 -5.97332
LeftToes  -1.03319e-009 7.52634e-011 -3.26162e-012
